<?xml version="1.0" encoding="utf-8"?>
<!-- Generator: Adobe Illustrator 22.0.0, SVG Export Plug-In . SVG Version: 6.00 Build 0)  -->
<svg version="1.1" id="Layer_1" xmlns="http://www.w3.org/2000/svg" xmlns:xlink="http://www.w3.org/1999/xlink" x="0px" y="0px"
	 viewBox="0 0 2000 2000" style="enable-background:new 0 0 2000 2000;" xml:space="preserve">
<style type="text/css">
	.st0{fill:#CCFFFF;}
	.st1{fill:#638D8C;}
	.st2{fill:#83A3A1;}
	.st3{fill:#182223;}
	.st4{fill:#5B7F82;}
	.st5{fill:#354A4C;}
	.st6{fill:#C3D4D5;}
	.st7{fill:#415B5D;}
	.st8{fill:#50888C;}
	.st9{fill:#232A4C;}
	.st10{fill:#2B3660;}
	.st11{fill:#E4A185;}
	.st12{fill:#E7B590;}
	.st13{fill:#292F54;}
	.st14{fill:#8AB2B0;}
	.st15{fill:#A0CDCC;}
	.st16{fill:#649FA1;}
	.st17{fill:#A9D9D5;}
	.st18{fill:#80A4B3;}
	.st19{fill:#3A5560;}
	.st20{fill:#4D7180;}
	.st21{fill:#263940;}
	.st22{fill:#74949E;}
	.st23{fill:#CFEAFD;}
	.st24{fill:#C6B19C;}
	.st25{fill:#C0FFFF;}
	.st26{fill:#85C0C3;}
	.st27{fill:#A67C52;}
	.st28{fill:#39B54A;}
</style>
<g>
	<circle class="st0" cx="937.6" cy="682.5" r="626.5"/>
	<ellipse class="st1" cx="864" cy="1831.6" rx="224.8" ry="112.4"/>
	<ellipse class="st2" cx="864" cy="1808.2" rx="224.8" ry="112.4"/>
	<g>
		<path class="st3" d="M1485.9,1714c-1-0.5-2.1-1-3.2-1.2l-5-2.8l3.9,9.1l-2.9,1.4l-28.8,14.4l-0.1,0.1l-2.2-1.1
			c-4.1,6.7-6.6,14-6.6,20.6c0,3.4,0.7,6.4,1.9,8.8c1.2,2.5,3.1,4.4,5.4,5.7l0.6,0.3c4.7,2.2,11.1,1.9,18.2-1.7
			c14.4-7.2,26.1-24.7,26.1-39.1C1493.1,1721.4,1490.4,1716.4,1485.9,1714z"/>
		<path class="st4" d="M1474.8,1708.4l-0.7,0.3c-0.8-0.8-1.7-1.5-2.7-2L1474.8,1708.4z"/>
		<path class="st5" d="M1442.9,1763.3c-1.2-2.4-1.9-5.3-1.9-8.8c0-6.6,2.5-13.9,6.6-20.6l-14.5-7.2c-4.1,6.7-6.6,14-6.6,20.6
			c0,7,2.8,12,7.3,14.4l14.5,7.2C1446,1767.7,1444.1,1765.8,1442.9,1763.3z"/>
		<path class="st3" d="M1445.9,1640.7l-27.7,13.8c0.3,1.3,0.7,2.5,1.3,3.5c1.2,2.5,3.1,4.4,5.4,5.7l0.6,0.3
			c4.7,2.2,11.1,1.9,18.2-1.7c12.5-6.2,22.9-20.2,25.5-33.2L1445.9,1640.7z"/>
		<path class="st6" d="M1433,1601.3l-7.6,3.8c1.2-0.8,2.5-1.5,3.8-2.2C1430.5,1602.3,1431.8,1601.7,1433,1601.3z"/>
		<path class="st5" d="M1419.5,1658c-0.5-1.1-1-2.2-1.3-3.5l-5.7,2.8l-0.2,0.1l12.5,6.3C1422.6,1662.5,1420.7,1660.6,1419.5,1658z"
			/>
		<path class="st6" d="M1412.6,1657.4l-0.2,0.1l-2-1C1411.1,1656.8,1411.8,1657.1,1412.6,1657.4z"/>
		<polygon class="st5" points="1385.3,1656.9 1399.4,1663.9 1481.5,1622.9 1481.5,1608.8 		"/>
		<polygon class="st4" points="1627.3,1337.1 1331.8,1189.8 1057.1,1327.2 1340,1468.7 1354,1475.7 1368.1,1468.7 		"/>
		<path class="st7" d="M1354,1501.4l-14-7v139.9v8c0,2.5,0.7,5,1.9,7c2.4,4.2,7,7,12.2,7c5.5,0,10.2-3.1,12.5-7.7
			c1-1.9,1.5-4,1.5-6.3v-8.5v-139.4L1354,1501.4z"/>
		<path class="st5" d="M1607.5,969.1c-26.9-40.3-64-75.5-105-96c-46.9-23.5-88.8-27.5-116-7c25.4-7.6,57.6,1.2,92.6,18.7
			c41,20.5,78.1,55.7,105,96c26.9,40.3,43.2,86.3,43.2,127.2v229.1L1354,1475.7l-296.9-148.5v25.7l296.9,148.5l282.1-141.1
			c9.1-4.5,14.8-13.8,14.8-23.9v-240.6C1650.9,1054.8,1634.3,1009.4,1607.5,969.1z"/>
		<path class="st3" d="M1271.2,1645.7l-22.3-11.2c-4.1,6.7-6.6,14-6.6,20.6c0,3.4,0.7,6.4,1.9,8.8c1.2,2.5,3.1,4.4,5.4,5.7l0.6,0.3
			c4.7,2.2,11.1,1.9,18.2-1.7c6.6-3.3,12.7-8.8,17.3-15.2L1271.2,1645.7z"/>
		<path class="st3" d="M1270.6,1728.4l-12.4,6.2l-0.8,0.4l-13.7-6.9c-0.9,3-1.3,6-1.3,8.9c0,3.4,0.7,6.4,1.9,8.8
			c1.2,2.5,3.1,4.4,5.4,5.7c4.7,2.5,11.4,2.3,18.8-1.4c12.5-6.2,22.9-20.3,25.5-33.2L1270.6,1728.4z"/>
		<path class="st6" d="M1257.7,1689l-7.6,3.8c1.3-0.8,2.5-1.5,3.8-2.2C1255.2,1690,1256.4,1689.4,1257.7,1689z"/>
		<path class="st4" d="M1481.5,1705l-96.2-48.1l96.2-48.1l-31.8-15.9l-81.7,40.8v8.5c0,2.3-0.5,4.4-1.5,6.3c-2.3,4.6-7,7.7-12.5,7.7
			c-5.2,0-9.7-2.8-12.2-7c-1.2-2.1-1.9-4.5-1.9-7v-8l-82.6-41.3l-31.8,15.9l0.2,0.1l96,48l-96.2,48.1l0,0l31.8,15.9l0.4-0.2
			l95.8-47.9l96.2,48.1"/>
		<path class="st5" d="M1244.2,1663.9c-1.2-2.4-1.9-5.3-1.9-8.8c0-6.6,2.5-13.9,6.6-20.6l-14.5-7.2c-4.1,6.7-6.6,14-6.6,20.6
			c0,7,2.8,12,7.3,14.4l14.5,7.2C1247.3,1668.3,1245.4,1666.4,1244.2,1663.9z"/>
		<path class="st5" d="M1244.2,1745.7c-1.2-2.4-1.9-5.3-1.9-8.8c0-2.9,0.5-5.8,1.3-8.9l-14.5-7.2c-0.9,3-1.3,6-1.3,8.9
			c0,7,2.8,12,7.3,14.4l14.5,7.2C1247.3,1750.1,1245.4,1748.2,1244.2,1745.7z"/>
		<polygon class="st5" points="1291.7,1641.9 1277.3,1634.7 1256.8,1624.5 1242.3,1617.2 1239.6,1615.9 1225.7,1608.9 
			1225.5,1609.5 1225.5,1622.9 1225.6,1622.9 1234.4,1627.3 1248.9,1634.5 1271.2,1645.7 1285.7,1652.9 1307.7,1663.9 
			1321.8,1656.9 		"/>
		<polygon class="st5" points="1481.5,1705 1449.8,1720.9 1353.6,1672.8 1257.4,1720.9 1225.6,1705.1 1225.5,1705.3 1225.5,1719.1 
			1225.6,1719.1 1257.4,1735 1353.6,1686.9 1449.8,1735 1449.9,1734.9 1481.5,1719.1 		"/>
		<path class="st7" d="M1584.1,976.1c-26.9-40.3-64-75.5-105-96c-35-17.5-67.2-21.5-92.6-13.9c-34,10.2-54.7,41.1-54.7,88.1v234.9
			v0.6l295.5,147.3v-234.3C1627.3,1061.8,1610.9,1016.4,1584.1,976.1z"/>
	</g>
	<path class="st8" d="M1224.2,1671.3c9.1,27,62.9,57.4,6.8,87.8c-56.1,30.4-128.6,72.5-135.6,51.4c-7-21,14-60.8,44.4-77.1
		c30.4-16.4,25.7-63.1,25.7-63.1L1224.2,1671.3z"/>
	<path class="st8" d="M1041.9,1615.2c9.1,27,62.9,57.4,6.8,87.8c-56.1,30.4-128.6,72.5-135.6,51.4s14-60.8,44.4-77.1
		c30.4-16.4,25.7-63.1,25.7-63.1L1041.9,1615.2z"/>
	<path class="st9" d="M1277.8,1198c-7,0-203.4,44.4-243.1,56.1c-39.7,11.7-112.2,32.7-112.2,84.2s25.7,310.9,56.1,320.3
		c30.4,9.4,81.8-9.4,81.8-9.4s-35.1-271.2-9.4-278.2c25.7-7,357.7-63.1,357.7-63.1L1277.8,1198z"/>
	<path class="st10" d="M1483.5,1251.8c16.4,44.4,9.4,84.2-56.1,109.9c-65.5,25.7-198.7,49.1-198.7,70.1s9.4,236.1,9.4,236.1
		s-67.8,18.7-81.8,4.7c-14-14-60.8-310.9-53.8-317.9s219.8-114.6,219.8-114.6L1483.5,1251.8z"/>
	<path class="st11" d="M1238,831c11.7,11.7,28,19,28,40s7.1,48.8,7.1,48.8s56.2-70.5,72.5-81.8c56.4-39,4.7-21-4.7-53.8
		c-9.4-32.7,0-84.2,0-84.2L1238,831z"/>
	<path class="st12" d="M1352.6,681.4c0-16.4-2.3-51.4-58.4-63.1c-56.1-11.7-79.5,9.4-95.9,25.7c-16.4,16.4-25.7,44.4-25.7,65.5
		c0,21,7,23.4,7,35.1c0,11.7-2.3,35.1,9.4,56.1c11.7,21,16.4,42.1,23.4,42.1s49.1,0,70.1-37.4c14.4-25.5,5.7-43.6,14-42.1
		c25.7,4.7,44.4-44.4,44.4-44.4L1352.6,681.4z"/>
	<path class="st13" d="M1328.2,746.7c-0.9-1.4-1.1-3.2-0.5-4.7c4.1-12.4,5.8-19.3-0.8-30.3c-8.5-14.2-21-2.3-28.1,11.7
		c-4.7,9.4-8.3,17.7-10.2,22.2c-0.9,2.1-3,3.5-5.3,3.5l0,0c-3,0-5.5-2.4-5.7-5.4c-0.4-7.9-1.9-22.9-6.8-34.4
		c-7-16.4-25.7-30.4-39.7-16.4c-14,14-16.4,14-35.1,14c-7.9,0-13.3,6.3-16.9,13.6c-2.5,5-10,3.7-10.8-1.9
		c-2.5-18.5-3.8-43.6,4.3-58.5c14-25.7,46.8-53.8,91.2-53.8c44.4,0,70.1,7,88.8,25.7c18.7,18.7,14,60.8,7,84.2
		c-4.3,14.3-10.4,30.4-14.4,40.7c-1.7,4.4-7.8,4.9-10.2,0.8L1328.2,746.7z"/>
	<path class="st14" d="M862.8,1833.9L862.8,1833.9c-17.5,0-31.6-14.2-31.6-31.6v-576.2h63.3v576.2
		C894.4,1819.8,880.3,1833.9,862.8,1833.9z"/>
	<polygon class="st2" points="1605.1,1311.5 1605.1,1337.2 1053.3,1613.1 1053.3,1587.4 	"/>
	<polygon class="st15" points="1053.3,1587.4 1053.3,1613.1 186,1180.5 186,1154.2 	"/>
	<path class="st16" d="M1474.1,1076.5c0-77.6,28.3-194.4-72.5-254.8c-23.4-14-54.7-26.6-54.7-26.6c-7.7,27.3-43.8,104.9-92.6,50
		c-15.7,10-33.1,21.7-44.3,32.4c-7.2,6.9-11.8,13.5-11.8,19c0,8.6,7.1,122.2,15.9,213c5.4,56.4,11.5,103.9,16.9,112
		c9.5,14.3,271.2,70.4,271.2,37.4C1502.2,1233.1,1474.1,1102.2,1474.1,1076.5z"/>
	<polygon class="st17" points="1605.1,1311.5 1053.3,1587.4 186,1154.2 737.7,875.4 	"/>
	<g>
		<g>
			<polygon class="st18" points="1015.3,1306.2 1015.3,1289.9 1225.7,1184.6 1225.7,1200.9 			"/>
		</g>
		<g>
			<polygon class="st18" points="687.9,1142.4 687.9,1126.1 1015.3,1289.9 1015.3,1306.2 			"/>
		</g>
		<g>
			<g>
				<polygon class="st19" points="1015.3,1289.9 687.9,1126.1 898.3,1020.9 1225.7,1184.6 				"/>
			</g>
			<g>
				<path class="st20" d="M1014.6,1156.1l-59.3-29.6c-9.8-4.9-9.8-12.9,0-17.8l17.8-8.9c9.8-4.9,25.8-4.9,35.6,0l59.3,29.6
					c9.8,4.9,9.8,12.9,0,17.8l-17.8,8.9C1040.4,1161,1024.4,1161,1014.6,1156.1z"/>
			</g>
			<g>
				<path class="st21" d="M994.6,1264.7l-256.3-128.2c-9.8-4.9-9.8-12.9,0-17.8l74.1-37.1c9.8-4.9,25.8-4.9,35.6,0l256.3,128.2
					c9.8,4.9,9.8,12.9,0,17.8l-74.1,37.1C1020.4,1269.6,1004.4,1269.6,994.6,1264.7z"/>
			</g>
			<g>
				<g>
					<g>
						<polygon class="st20" points="759.2,1137.2 740.2,1127.7 753.4,1121.1 772.3,1130.6 						"/>
					</g>
					<g>
						<polygon class="st20" points="784.5,1149.9 765.5,1140.4 778.7,1133.8 797.6,1143.3 						"/>
					</g>
					<g>
						<polygon class="st20" points="809.8,1162.5 790.8,1153 804,1146.4 822.9,1155.9 						"/>
					</g>
					<g>
						<polygon class="st20" points="835.1,1175.2 816.1,1165.7 829.2,1159.1 848.2,1168.6 						"/>
					</g>
					<g>
						<polygon class="st20" points="860.3,1187.8 841.4,1178.3 854.5,1171.7 873.5,1181.2 						"/>
					</g>
					<g>
						<polygon class="st20" points="885.6,1200.4 866.7,1191 879.8,1184.4 898.8,1193.9 						"/>
					</g>
					<g>
						<polygon class="st20" points="910.9,1213.1 892,1203.6 905.1,1197 924.1,1206.5 						"/>
					</g>
					<g>
						<polygon class="st20" points="936.2,1225.7 917.3,1216.3 930.4,1209.7 949.4,1219.2 						"/>
					</g>
					<g>
						<polygon class="st20" points="961.5,1238.4 942.5,1228.9 955.7,1222.3 974.7,1231.8 						"/>
					</g>
					<g>
						<polygon class="st20" points="986.8,1251 967.8,1241.6 981,1235 1000,1244.5 						"/>
					</g>
					<g>
						<polygon class="st20" points="1012.1,1263.7 993.1,1254.2 1006.3,1247.6 1025.3,1257.1 						"/>
					</g>
				</g>
				<g>
					<g>
						<polygon class="st20" points="778.4,1127.6 759.5,1118.1 772.6,1111.5 791.6,1121 						"/>
					</g>
					<g>
						<polygon class="st20" points="803.7,1140.2 784.8,1130.7 797.9,1124.1 816.9,1133.6 						"/>
					</g>
					<g>
						<polygon class="st20" points="829,1152.9 810.1,1143.4 823.2,1136.8 842.2,1146.3 						"/>
					</g>
					<g>
						<polygon class="st20" points="854.3,1165.5 835.3,1156 848.5,1149.4 867.5,1158.9 						"/>
					</g>
					<g>
						<polygon class="st20" points="879.6,1178.2 860.6,1168.7 873.8,1162.1 892.8,1171.6 						"/>
					</g>
					<g>
						<polygon class="st20" points="904.9,1190.8 885.9,1181.3 899.1,1174.7 918.1,1184.2 						"/>
					</g>
					<g>
						<polygon class="st20" points="930.2,1203.5 911.2,1194 924.4,1187.4 943.4,1196.9 						"/>
					</g>
					<g>
						<polygon class="st20" points="955.5,1216.1 936.5,1206.6 949.7,1200 968.6,1209.5 						"/>
					</g>
					<g>
						<polygon class="st20" points="980.8,1228.8 961.8,1219.3 975,1212.7 993.9,1222.2 						"/>
					</g>
					<g>
						<polygon class="st20" points="1006.1,1241.4 987.1,1231.9 1000.3,1225.3 1019.2,1234.8 						"/>
					</g>
					<g>
						<polygon class="st20" points="1031.4,1254.1 1012.4,1244.6 1025.6,1238 1044.5,1247.5 						"/>
					</g>
				</g>
				<g>
					<g>
						<polygon class="st20" points="778.4,1127.6 759.5,1118.1 772.6,1111.5 791.6,1121 						"/>
					</g>
					<g>
						<polygon class="st20" points="803.7,1140.2 784.8,1130.7 797.9,1124.1 816.9,1133.6 						"/>
					</g>
					<g>
						<polygon class="st20" points="829,1152.9 810.1,1143.4 823.2,1136.8 842.2,1146.3 						"/>
					</g>
					<g>
						<polygon class="st20" points="854.3,1165.5 835.3,1156 848.5,1149.4 867.5,1158.9 						"/>
					</g>
					<g>
						<polygon class="st20" points="879.6,1178.2 860.6,1168.7 873.8,1162.1 892.8,1171.6 						"/>
					</g>
					<g>
						<polygon class="st20" points="904.9,1190.8 885.9,1181.3 899.1,1174.7 918.1,1184.2 						"/>
					</g>
					<g>
						<polygon class="st20" points="930.2,1203.5 911.2,1194 924.4,1187.4 943.4,1196.9 						"/>
					</g>
					<g>
						<polygon class="st20" points="955.5,1216.1 936.5,1206.6 949.7,1200 968.6,1209.5 						"/>
					</g>
					<g>
						<polygon class="st20" points="980.8,1228.8 961.8,1219.3 975,1212.7 993.9,1222.2 						"/>
					</g>
					<g>
						<polygon class="st20" points="1006.1,1241.4 987.1,1231.9 1000.3,1225.3 1019.2,1234.8 						"/>
					</g>
					<g>
						<polygon class="st20" points="1031.4,1254.1 1012.4,1244.6 1025.6,1238 1044.5,1247.5 						"/>
					</g>
				</g>
				<g>
					<g>
						<polygon class="st20" points="797.7,1117.9 778.7,1108.5 791.9,1101.9 810.9,1111.4 						"/>
					</g>
					<g>
						<polygon class="st20" points="823,1130.6 804,1121.1 817.2,1114.5 836.2,1124 						"/>
					</g>
					<g>
						<polygon class="st20" points="848.3,1143.2 829.3,1133.8 842.5,1127.2 861.5,1136.7 						"/>
					</g>
					<g>
						<polygon class="st20" points="873.6,1155.9 854.6,1146.4 867.8,1139.8 886.7,1149.3 						"/>
					</g>
					<g>
						<polygon class="st20" points="898.9,1168.5 879.9,1159 893.1,1152.5 912,1161.9 						"/>
					</g>
					<g>
						<polygon class="st20" points="924.2,1181.2 905.2,1171.7 918.4,1165.1 937.3,1174.6 						"/>
					</g>
					<g>
						<polygon class="st20" points="949.5,1193.8 930.5,1184.3 943.6,1177.8 962.6,1187.2 						"/>
					</g>
					<g>
						<polygon class="st20" points="974.7,1206.5 955.8,1197 968.9,1190.4 987.9,1199.9 						"/>
					</g>
					<g>
						<polygon class="st20" points="1000,1219.1 981.1,1209.6 994.2,1203.1 1013.2,1212.5 						"/>
					</g>
					<g>
						<polygon class="st20" points="1025.3,1231.8 1006.4,1222.3 1019.5,1215.7 1038.5,1225.2 						"/>
					</g>
					<g>
						<polygon class="st20" points="1050.6,1244.4 1031.7,1234.9 1044.8,1228.4 1063.8,1237.8 						"/>
					</g>
				</g>
				<g>
					<g>
						<polygon class="st20" points="797.7,1117.9 778.7,1108.5 791.9,1101.9 810.9,1111.4 						"/>
					</g>
					<g>
						<polygon class="st20" points="823,1130.6 804,1121.1 817.2,1114.5 836.2,1124 						"/>
					</g>
					<g>
						<polygon class="st20" points="848.3,1143.2 829.3,1133.8 842.5,1127.2 861.5,1136.7 						"/>
					</g>
					<g>
						<polygon class="st20" points="873.6,1155.9 854.6,1146.4 867.8,1139.8 886.7,1149.3 						"/>
					</g>
					<g>
						<polygon class="st20" points="898.9,1168.5 879.9,1159 893.1,1152.5 912,1161.9 						"/>
					</g>
					<g>
						<polygon class="st20" points="924.2,1181.2 905.2,1171.7 918.4,1165.1 937.3,1174.6 						"/>
					</g>
					<g>
						<polygon class="st20" points="949.5,1193.8 930.5,1184.3 943.6,1177.8 962.6,1187.2 						"/>
					</g>
					<g>
						<polygon class="st20" points="974.7,1206.5 955.8,1197 968.9,1190.4 987.9,1199.9 						"/>
					</g>
					<g>
						<polygon class="st20" points="1000,1219.1 981.1,1209.6 994.2,1203.1 1013.2,1212.5 						"/>
					</g>
					<g>
						<polygon class="st20" points="1025.3,1231.8 1006.4,1222.3 1019.5,1215.7 1038.5,1225.2 						"/>
					</g>
					<g>
						<polygon class="st20" points="1050.6,1244.4 1031.7,1234.9 1044.8,1228.4 1063.8,1237.8 						"/>
					</g>
				</g>
				<g>
					<g>
						<polygon class="st20" points="817,1108.3 798,1098.8 811.2,1092.2 830.1,1101.7 						"/>
					</g>
					<g>
						<polygon class="st20" points="842.3,1121 823.3,1111.5 836.5,1104.9 855.4,1114.4 						"/>
					</g>
					<g>
						<polygon class="st20" points="867.5,1133.6 848.6,1124.1 861.7,1117.5 880.7,1127 						"/>
					</g>
					<g>
						<polygon class="st20" points="892.8,1146.3 873.9,1136.8 887,1130.2 906,1139.7 						"/>
					</g>
					<g>
						<polygon class="st20" points="918.1,1158.9 899.2,1149.4 912.3,1142.8 931.3,1152.3 						"/>
					</g>
					<g>
						<polygon class="st20" points="943.4,1171.6 924.5,1162.1 937.6,1155.5 956.6,1165 						"/>
					</g>
					<g>
						<polygon class="st20" points="968.7,1184.2 949.7,1174.7 962.9,1168.1 981.9,1177.6 						"/>
					</g>
					<g>
						<polygon class="st20" points="994,1196.8 975,1187.4 988.2,1180.8 1007.2,1190.3 						"/>
					</g>
					<g>
						<polygon class="st20" points="1019.3,1209.5 1000.3,1200 1013.5,1193.4 1032.5,1202.9 						"/>
					</g>
					<g>
						<polygon class="st20" points="1044.6,1222.1 1025.6,1212.7 1038.8,1206.1 1057.8,1215.6 						"/>
					</g>
					<g>
						<polygon class="st20" points="1069.9,1234.8 1050.9,1225.3 1064.1,1218.7 1083,1228.2 						"/>
					</g>
				</g>
				<g>
					<g>
						<polygon class="st20" points="817,1108.3 798,1098.8 811.2,1092.2 830.1,1101.7 						"/>
					</g>
					<g>
						<polygon class="st20" points="842.3,1121 823.3,1111.5 836.5,1104.9 855.4,1114.4 						"/>
					</g>
					<g>
						<polygon class="st20" points="867.5,1133.6 848.6,1124.1 861.7,1117.5 880.7,1127 						"/>
					</g>
					<g>
						<polygon class="st20" points="892.8,1146.3 873.9,1136.8 887,1130.2 906,1139.7 						"/>
					</g>
					<g>
						<polygon class="st20" points="918.1,1158.9 899.2,1149.4 912.3,1142.8 931.3,1152.3 						"/>
					</g>
					<g>
						<polygon class="st20" points="943.4,1171.6 924.5,1162.1 937.6,1155.5 956.6,1165 						"/>
					</g>
					<g>
						<polygon class="st20" points="968.7,1184.2 949.7,1174.7 962.9,1168.1 981.9,1177.6 						"/>
					</g>
					<g>
						<polygon class="st20" points="994,1196.8 975,1187.4 988.2,1180.8 1007.2,1190.3 						"/>
					</g>
					<g>
						<polygon class="st20" points="1019.3,1209.5 1000.3,1200 1013.5,1193.4 1032.5,1202.9 						"/>
					</g>
					<g>
						<polygon class="st20" points="1044.6,1222.1 1025.6,1212.7 1038.8,1206.1 1057.8,1215.6 						"/>
					</g>
					<g>
						<polygon class="st20" points="1069.9,1234.8 1050.9,1225.3 1064.1,1218.7 1083,1228.2 						"/>
					</g>
				</g>
				<g>
					<polygon class="st20" points="836.2,1098.7 817.3,1089.2 830.4,1082.6 849.4,1092.1 					"/>
				</g>
				<g>
					<polygon class="st20" points="861.5,1111.3 842.5,1101.8 855.7,1095.3 874.7,1104.7 					"/>
				</g>
				<g>
					<polygon class="st20" points="886.8,1124 867.8,1114.5 881,1107.9 900,1117.4 					"/>
				</g>
				<g>
					<polygon class="st20" points="912.1,1136.6 893.1,1127.1 906.3,1120.5 925.3,1130 					"/>
				</g>
				<g>
					<polygon class="st20" points="988,1174.6 918.4,1139.8 931.5,1133.2 1001.1,1168 					"/>
				</g>
				<g>
					<polygon class="st20" points="1013.3,1187.2 994.3,1177.7 1007.5,1171.1 1026.4,1180.6 					"/>
				</g>
				<g>
					<polygon class="st20" points="1038.6,1199.9 1019.6,1190.4 1032.8,1183.8 1051.7,1193.3 					"/>
				</g>
				<g>
					<polygon class="st20" points="1063.9,1212.5 1044.9,1203 1058,1196.4 1077,1205.9 					"/>
				</g>
				<g>
					<polygon class="st20" points="1089.1,1225.2 1070.2,1215.7 1083.3,1209.1 1102.3,1218.6 					"/>
				</g>
			</g>
		</g>
		<g>
			<polygon class="st22" points="1015.3,1289.9 687.9,1126.1 636,942 963.5,1106.5 			"/>
		</g>
	</g>
	<g>
		<g>
			<path class="st23" d="M1339.6,1229.6c0,1.9-0.4,3.8-1.1,5.6c-2.2,5.7-7.6,11.1-16.4,15.4c-23.2,11.6-60.9,11.6-84.2,0
				c-8.7-4.4-14.2-9.8-16.4-15.4c-0.7-1.8-1.1-3.7-1.1-5.6s0.4-3.8,1.1-5.6c2.2-5.7,7.6-11.1,16.4-15.4c23.2-11.6,60.9-11.6,84.2,0
				C1333.8,1214.4,1339.6,1222,1339.6,1229.6z"/>
		</g>
		<g>
			<path class="st23" d="M1323.4,1324.7c0-2.7,2-6,4.6-7.8c15.4-10.3,27.1-29.5,27.1-45.6c0-16.1-11.7-23.6-27.1-18.5
				c-2.7,0.9-4.6-0.4-4.6-3.1v-1.6c0-3.4,3-7.5,6.4-8.7c21.5-7.3,38.1,3.1,38.1,25.6c0,22.5-16.5,49.5-38.1,63.7
				c-3.3,2.2-6.4,1-6.4-2.3V1324.7z"/>
		</g>
		<path class="st24" d="M1221.7,1254.4c2.2-5.7,7.6-11.1,16.4-15.4c23.2-11.6,60.9-11.6,84.2,0c14.5,7.2,19.9,17.3,16.4,26.7
			c-2.2,5.7-7.6,11.1-16.4,15.4c-23.2,11.6-60.9,11.6-84.2,0c-8.7-4.4-14.2-9.8-16.4-15.4
			C1220.2,1261.9,1220.2,1258.1,1221.7,1254.4z"/>
		<g>
			<path class="st25" d="M1338.5,1235.2c-2.2,5.7-7.6,11.1-16.4,15.4c-23.2,11.6-60.9,11.6-84.2,0c-8.7-4.4-14.2-9.8-16.4-15.4
				c-0.7-1.8-1.1-3.7-1.1-5.6v5.6v110.3v5.6h0c0,7.6,5.8,15.2,17.4,21c23.2,11.6,60.9,11.6,84.2,0c11.6-5.8,17.4-13.4,17.4-21v-5.6
				v-110.3v-5.6C1339.6,1231.5,1339.2,1233.3,1338.5,1235.2z"/>
		</g>
	</g>
	<path class="st11" d="M1138.7,1037.9c-42.1,9.4-80.7,24.5-99.4,15.2c-18.7-9.4-39.7-16.4-51.4-16.4c-11.7,0-30.4,4.7-37.4,11.7
		c-7,7-25.7,42.1-16.4,37.4c9.4-4.7,23.4-21,23.4-21s-16.4,25.7-9.4,25.7c7,0,30.4-28.1,30.4-28.1s18.7-7,25.7,0
		c7,7-9.4,23.4-9.4,23.4s11.7,9.4,21,0s24.5,17.5,59.6,29.2c35.1,11.7,88.8-2.3,88.8-2.3L1138.7,1037.9z"/>
	<path class="st26" d="M1198.3,896.4c0,8.6,7.1,122.2,15.9,213c-2.3,2.3-4.7,4.3-7.2,6.2c-10.1,7.7-47.2,11.1-58.4,11.1
		c-11.2,0-72-11.1-72-11.1s9-13.3,9-33.2c0-19.9-12.4-31-12.4-31s41.6-6.7,55.1-17.7c42.2-34.6,7.2-123.9,81.8-156.2
		C1202.9,884.4,1198.3,890.9,1198.3,896.4z"/>
	<path class="st12" d="M1277.8,1062.4c-42.1,0-79.5,2.3-105.2,0s-45.6-2.8-88.3-3.7c-42.6-0.9-59,1.4-68.4,8.4s-39.7,30.4-37.4,32.7
		c2.3,2.3,9.4,0,9.4,0s-4.7,2.3,0,7c4.7,4.7,7,0,7,0s2.3,0,4.7,2.3s14-4.7,14-4.7s-4.7,4.7,4.7,4.7s18.7-11.7,32.7-11.7
		c14,0,46.8,7,63.1,9.4c16.4,2.3,51.4,2.3,67.8,9.4c16.4,7,51.4,11.7,72.5,14s37.4,0,37.4,0L1277.8,1062.4z"/>
	<path class="st26" d="M1464.8,943.2c0-18.7,1.9-78.8-30.4-74.8c-130.9,16.4-76.1,133.6-126.2,175.3c-14,11.7-57.3,18.7-57.3,18.7
		s12.9,11.7,12.9,32.7c0,21-9.4,35.1-9.4,35.1s63.1,11.7,74.8,11.7c11.7,0,50.3-3.6,60.8-11.7
		C1441.4,1090.5,1464.8,961.9,1464.8,943.2z"/>
	<g>
		<g>
			<g>
				<path class="st23" d="M1801.9,1682.4c0,4.1-0.8,8.2-2.3,12.2c-4.7,12.3-16.6,24.1-35.7,33.6c-50.6,25.3-132.8,25.3-183.4,0
					c-19.1-9.5-31-21.3-35.7-33.6c-1.5-4-2.3-8.2-2.3-12.2c0-4.1,0.8-8.2,2.3-12.2c4.7-12.3,16.6-24.1,35.7-33.6
					c50.6-25.3,132.8-25.3,183.4,0C1789.3,1649.3,1801.9,1665.8,1801.9,1682.4z"/>
			</g>
			<path class="st27" d="M1555.6,1711.8c4.2-9.1,14.9-17.9,31.9-24.9c45.3-18.8,118.9-18.8,164.2,0c28.3,11.7,38.9,27.9,31.9,43
				c-4.2,9.1-14.9,17.9-31.9,24.9c-45.3,18.8-118.9,18.8-164.2,0c-17.1-7.1-27.7-15.8-31.9-24.9
				C1552.8,1723.9,1552.8,1717.7,1555.6,1711.8z"/>
			<g>
				<path class="st26" d="M1799.6,1690.9c-4.7,8.5-16.6,16.6-35.7,23.2c-50.6,17.5-132.8,17.5-183.4,0c-19.1-6.6-31-14.7-35.7-23.2
					c-1.5-2.8-2.3-5.6-2.3-8.4v8.4c0,0-11.2,219,129.7,219c143.9,0,129.7-219,129.7-219v-8.4
					C1801.9,1685.3,1801.2,1688.1,1799.6,1690.9z"/>
			</g>
		</g>
		<path class="st28" d="M1666.2,1711.3c8.5-3.8,8.4-15.2,6.6-22.9c-1.2-5-3.1-9.9-4.5-14.9c-1.4-4.9-2.5-9.8-3.5-14.8
			c-0.5-2.9-1-5.8-1.4-8.7c0,0,0,0,0,0c1.6-2.4,2.5-5.4,4-7.9c1.5-2.7,3.3-5.2,5.2-7.6c2.5-3.1,5.3-5.8,8.3-8.3c0,0,0.1,0,0.1,0
			c7.9-1.9,16.2-4.3,22.9-9.1c3.1-2.3,5.9-5,7.9-8.3c2.4-4,3.5-8.5,5.5-12.6c2.2-4.5,5.8-7.1,9.7-10.1c3.5-2.7,6.5-5.8,8.5-9.8
			c3.8-7.8,4.4-16.9,8.9-24.4c8.5-14.2,24.6-22.3,30.5-38.3c3.5-9.6,3.8-19.9,7.8-29.3c3.8-8.9,9.3-16.9,13.9-25.3
			c10.8-19.7,15-42.2,11.6-64.5c-0.4-2.3-4.3-1.8-4.1,0.6c1.7,19.7-5.7,39.1-19.9,52.8c-3.6,3.5-7.4,6.8-10.4,10.8
			c-3,4-4.8,8.5-6.5,13.1c-1.8,4.7-4.1,8.9-7,13.1c-2.6,3.8-5.4,7.5-6.8,12c-1.4,4.6-0.1,9.5-1.6,14c-1.4,4.2-5.8,5.4-9.6,6.6
			c-3.7,1.3-7.3,2.8-10,5.8c-2.6,3-4.2,6.6-5.7,10.2c-1.6,3.7-3.1,7.6-5.8,10.6c-2.6,2.9-5.9,5.1-9.1,7.4
			c-5.9,4.1-12.1,8.7-13.2,16.3c-0.4,2.9,0,5.9-0.7,8.7c-0.7,2.9-2.8,4.6-4.9,6.5c-3.6,3.1-6.1,6.9-7.7,11.4
			c-2.8,8.2-2.3,17.3-0.9,25.8c-1.1,0.6-2.1,1.2-3.2,1.9c-0.4,0.1-0.9,0.2-1.3,0.4c-0.9,0.2-1.3,0.9-1.4,1.6
			c-3.2,2.5-6.1,5.3-8.7,8.4c-2,2.4-3.8,4.9-5.4,7.6c-0.6,1-1.3,2.1-1.9,3.2c-1.7-15.2-1.7-30.6-1-45.9c1-20.4,3.4-40.7,5.3-61
			c1.2-1.6,2.1-3.5,3.3-5.2c1.7-2.5,3.6-4.8,5.7-7.1c3.9-4.2,8.2-8.1,13-11.4c0,0,0.1,0,0.1,0c7.6,3.1,15.4-4.6,20.8-9.1
			c6.8-5.6,13.3-11.7,18.7-18.7c5.1-6.7,9.1-14.4,10.4-22.7c0.8-5,0.5-10.2,1.6-15.2c1.1-4.5,3.6-8.5,6.2-12.3c2.4-3.5,4.9-7,6.6-11
			c1.9-4.4,2.8-9,3.5-13.7c0.7-4.6,1.3-9.3,2.8-13.7c1.4-4.2,3.9-7.7,6.9-10.9c5.3-5.6,11.7-10.6,14.5-18c1.8-4.8,1.6-9.9,1.6-14.9
			c0-5,0.7-9.7,3-14.1c2.5-4.8,6-8.9,9.3-13.1c3.2-4.2,6.2-8.5,8.7-13.2c5.2-9.6,8.7-20.2,10.2-31c0.4-2.6-2.9-3.5-3.9-1.1
			c-6,15.6-24.3,21.8-31.6,36.6c-2,4-2.5,8.1-3.1,12.5c-0.6,5.2-3,8.4-7.1,11.4c-3.3,2.3-6.9,4.3-9.7,7.1c-3.2,3.1-4.6,7.1-4.6,11.5
			c0,5.2,1.4,10.4-1.4,15.2c-2.1,3.5-5.4,6.2-8.4,8.8c-3.1,2.7-6.3,5.5-8.4,9.1c-2.7,4.6-2.9,9.8-2.7,15c0.3,5.4,0.7,10.8-1.8,15.9
			c-2,4-5,7.3-8.1,10.4c-3.2,3.2-6.5,6.3-9.3,9.8c-2.9,3.6-5,7.5-6.5,11.9c-1.8,5-3,10.5-6,15c-3.3,4.8-9.2,6.2-12.9,10.5
			c-6.8,7.9-2.2,19.1-1.5,28.5c-0.3,0.5-0.5,1.2-0.3,1.8c-4.8,3.1-9.3,6.6-13.2,10.8c-2,2.1-3.8,4.4-5.6,6.7
			c-0.1,0.1-0.2,0.3-0.3,0.4c1.8-20.2,2.9-40.5,1.3-60.8c-0.6-7.3-1.4-14.6-2.3-21.9c2-1,3.8-2.9,5.3-4.3c2.2-2,4.4-4.1,6.3-6.4
			c3.4-3.8,6.4-7.9,8.9-12.3c7.2-2.2,13.3-7.2,16.9-13.9c1.8-3.3,2.9-6.8,3.2-10.5c0.5-4.8-0.7-9.9,0.8-14.6
			c2.1-6.8,9.5-10.4,12.6-16.7c3.7-7.6-1.7-15.2,0.7-22.9c2.1-6.9,7.5-12.4,11.1-18.5c1.7-2.9,3.2-6.2,3.9-9.5
			c0.8-4.2,0.3-8.5-0.5-12.7c-0.8-4.4-2-8.8-1.9-13.2c0.1-4.5,2.1-8.2,4.7-11.8c2.5-3.4,5.3-6.6,7.2-10.4c1.7-3.3,2.8-6.9,3.4-10.6
			c1.5-8.8,0.7-17.7,0.6-26.5c-0.1-7,0.4-14.1,3.2-20.4c0.9-1.6,1.8-3.3,2.8-4.9c1.3-2.4-2.1-4.3-3.6-2.1c-1.3,1.8-2.3,3.6-3.1,5.5
			c-3.6,6.3-7.1,12.6-10.7,18.9c-4.1,7.2-9.4,14.8-10.4,23.2c-0.2,2-0.2,3.9,0.1,5.9c0.4,2.1,1.4,4.2,1.5,6.4
			c0.2,3.5-2.7,5.9-5.3,7.8c-2.8,2-5.7,3.9-7.9,6.6c-2.2,2.7-3.9,5.8-4.8,9.2c-1.9,7.6,2.8,16.5-2.9,22.9c-4.4,4.9-10.4,7.8-13,14.3
			c-2.7,7-0.9,14.8,0.4,21.8c0.7,4,1.4,8,1.2,12.1c-0.2,4.2-1.3,8.4-2.8,12.3c-5.7,15.1-18.5,32.5-9.3,48.8
			c-0.6,0.5-0.8,1.2-0.7,1.9c-2.7,4.1-5.6,8.1-8.9,11.8c-1.8,2-3.7,3.9-5.7,5.8c-1.1,1-2.5,1.9-3.7,3c-0.4-3.4-0.8-6.8-1.3-10.2
			c-1.3-11-2.2-22.2-4.2-33.1c0.6-0.7,0.6-1.8-0.3-2.5c-0.1,0-0.1-0.1-0.2-0.1c0-0.2-0.1-0.4-0.1-0.7c0-0.1-0.1-0.2-0.1-0.3
			c3.1-7.4,4.1-15.4,2.5-23.3c-0.8-4.4-3.3-8.6-3.3-13.1c0-4,2.3-7.3,1.5-11.3c-1.4-7.1-8.5-11.6-6.6-19.4c0.9-3.8,2.7-7.2,3.5-11
			c0.8-3.7,0.4-7.4-0.9-10.9c-1.4-3.8-3.6-7.2-5-10.9c-1.6-4-1.9-8.2-1.6-12.4c0.6-8.1,3.3-16,2.7-24.1c-0.7-8.4-5.9-14.5-9.2-22
			c-3.8-8.5-1.9-17.9-0.5-26.8c1.5-9.9,1.6-19.3-1.4-29c-2.3-7.5-5.8-14.6-9.6-21.5c-0.9-1.9-1.9-3.8-3.1-5.6
			c-1.4-2.2-4.8-0.2-3.5,2.1c1,1.7,1.9,3.4,2.9,5.2c3.1,6.7,4.5,14.1,4,21.5c-0.3,4.6-1.4,9.3-3.2,13.5c-1.8,4.4-4.9,8.2-6.4,12.7
			c-1.5,4.4-0.6,8.6,1,12.9c1.6,4.5,3.1,8.5,1,13.2c-1.7,3.8-4.4,7.1-6,11c-1.5,3.5-1.8,7.2-0.8,10.9c1.9,7.4,7.6,12.9,10.3,19.9
			c1.5,3.8,1.3,7.5-0.2,11.3c-1.6,3.9-3.9,7.6-4.6,11.8c-0.7,4.2,0.7,7.8,3,11.2c2.7,4,5.3,7.3,5.2,12.5c-0.1,5-1.6,9.9-0.9,14.9
			c0.6,4.1,2.7,7.7,5,11.1c2.8,4.2,5.7,8.4,5.4,13.7c-0.4,5.4-2.5,10.3-1.2,15.7c2.1,8.9,10.2,15.2,17.8,19.7
			c0.2,9.8,1.5,19.7,2.4,29.5c0.8,9,1.6,18,2.3,27c-1.3-1.8-2.7-3.5-3.9-5.2c-2.2-3-4.5-5.9-6.9-8.8c-4.4-5.4-9.1-10.5-14.1-15.5
			c0-0.2,0-0.4-0.1-0.6c-3.3-9.4-6.6-18.8-10-28.2c-1.5-4-2.7-8.3-5-12c-2.2-3.7-5.6-6.7-7-10.8c-1.3-3.5-1.4-7.5-3.6-10.6
			c-1.9-2.7-4.7-4.3-7.6-5.7c-3-1.5-6.5-2.9-8.5-5.8c-2.2-3.2-2.8-7.3-4.1-10.9c-1.3-3.3-3.1-5.9-5.9-8c-2.8-2.2-6.2-3.8-8.5-6.6
			c-2.7-3.3-3.1-7.8-3.8-11.8c-0.6-4-1.5-7.8-3.1-11.5c-3-7.3-7.5-13.7-13.4-19c-5.5-5-12.3-9.5-15.2-16.6
			c-1.8-4.4-1.7-9.4-3.3-13.9c-1.5-4.3-4.4-7.4-7.9-10.3c-7.6-6.3-13.7-13.4-17.2-22.8c-0.6-1.6-3.5-2.1-3.8,0
			c-1.6,9.4,0.3,19.2,5.6,27.2c2.8,4.2,6.9,7.3,7.3,12.6c0.3,4.5,0.1,8.5,1.9,12.8c3.1,7.6,9.2,13.3,13.6,20.1
			c2.5,3.9,4.3,7.9,4.8,12.6c0.6,4.7,0.3,9.5,1.5,14.2c2.2,8.9,9.6,12.6,16.9,17c3.8,2.3,7.3,4.9,9.2,9.1c2.2,4.6,2.4,10,2.6,15
			c0.4,7.9,1,16.9,7,22.8c3.2,3.2,6.9,3.8,11.1,4.8c4.7,1,6.1,4,7.7,8.2c1.3,3.4,2.7,7.2,6.2,8.9c2.1,1.1,5,0.7,6.3,3
			c1.1,2,1.2,4.5,2,6.7c3,8.5,12.6,13.4,21.2,11.2c5,5.3,9.7,10.9,14.2,16.6c2.4,3,4.8,6.1,7.1,9.3c2.3,3.1,4.2,6.6,6.8,9.4
			c0,0,0.1,0.1,0.1,0.1c1.4,20.6,0.6,41.3-1.1,61.9c-0.8,10.1-1.9,20.3-2.9,30.4c-1.7-5.2-4.6-10.2-7.7-14.3
			c-3-3.9-6.5-7.4-10.2-10.5c-1.9-1.6-3.8-3.1-5.8-4.5c-1.4-1-2.7-2-4.2-2.4c2.2-5.9,2.1-12.4-0.5-18.2c-1.4-3.3-3.6-6.2-6.3-8.4
			c-3-2.5-7.2-4.6-8.6-8.5c-0.7-1.8-0.8-3.8-1.2-5.7c-0.5-2.1-1.3-4-2.4-5.8c-2.2-3.8-5.2-7.3-7.7-10.9
			c-5.5-7.9-10.5-16.3-14.8-24.9c-1.8-3.6-3.6-7.3-6.7-10.1c-3.1-2.7-7-4.3-9.9-7.2c-5.5-5.6-5-14.7-8.8-21.4
			c-3.4-6-9.5-9.7-15.5-12.9c-6.9-3.6-13.6-7-18.6-13.2c-5.9-7.3-9.4-16.3-15.8-23.2c-5.9-6.4-14.3-11.2-23.3-9.2
			c-1.4,0.3-1.9,2.7-0.4,3.3c14.8,6.4,17.7,24.5,23.6,37.7c3,6.7,7.1,13.1,13.4,17.2c3.4,2.2,7.3,3.3,10.7,5.6
			c3.7,2.5,4.9,6.6,6,10.7c2,7.5,5.7,13.6,10.6,19.6c4.9,6,10.5,11.9,13.4,19.2c3.4,8.6,2,18,4.5,26.8c1.9,6.6,6.1,13.3,13.1,15.3
			c2.5,0.7,5.2,0.7,7.3,2.6c1.5,1.3,2.5,3.1,3.5,4.8c2.2,3.8,4.7,7.2,8.1,10.1c6.3,5.4,14.4,8.5,22.7,8.6c0.3,1,1.6,1.6,2.4,0.9
			c2.1,0.6,4.4,2.9,6,4.2c1.6,1.3,3.1,2.5,4.6,3.9c3.2,2.9,6.2,6,8.7,9.5c2.6,3.5,4.7,7.3,6.1,11.4c1.5,4.3,1.9,8.6,2.3,13.1
			c0,0.2,0.1,0.4,0.2,0.6c-2.5,26.5-4.1,53.1-0.9,79.6c0.1,0.7,0.2,1.3,0.3,2c-2.4-0.8-4.8-1.6-7.1-2.6c-3.6-1.6-7.1-3.4-10.5-5.4
			c-5.9-3.6-11.4-8-16.4-12.7c6.5-15-1-31.8-9.8-44.2c-5.1-7.1-10.8-13.8-15.6-21.1c-4.5-7-7.4-14.8-14-20.2c-3-2.5-6.3-4.7-9.1-7.4
			c-3.1-3-4.7-6.6-6.3-10.5c-1.5-3.6-3.1-7-5.7-9.9c-2.5-2.7-5.5-5-8.5-7.1c-6.3-4.4-12.5-8.3-16.9-14.8c-4.2-6-7.1-12.9-10.2-19.5
			c-3.5-7.4-7.4-14.8-13.4-20.5c-6.8-6.4-15.7-9.9-24.8-11.7c-2.2-0.4-3.5,2.4-1.6,3.7c13.9,9.3,24.2,23.7,28.2,39.9
			c2.1,8.5,2.3,17.5,5.9,25.6c3.2,7.2,9.4,11.7,15.6,16.2c3.1,2.2,6.2,4.5,8.8,7.3c3,3.2,4.9,7.1,6,11.3c2.1,8,2,16.5,5.3,24.2
			c1.4,3.2,3.3,6.3,6,8.6c3,2.6,6.4,3.6,10.2,4.5c4.2,1,7.2,2.7,8.5,7c1.1,3.8,1.1,7.7,1.9,11.5c3.7,16.4,21.6,23.7,35.8,28.7
			c0.2,0.1,0.3,0.1,0.5,0.1c0.3,0.2,0.7,0.3,1.1,0.3c4.7,5.3,10.2,9.8,16.2,13.6c3.4,2.2,7,4.2,10.7,5.9c3.1,1.5,6.5,3,9.9,3.9
			c1.4,8.8,3.3,17.6,6,26.1c1.6,5.2,3.9,10.6,4,16.2c0.1,4.5-1.7,8.7-4.4,12.2C1661.6,1710.2,1664.4,1712.1,1666.2,1711.3z"/>
	</g>
</g>
</svg>
